<svg xmlns="http://www.w3.org/2000/svg" width="13" height="13.891" viewBox="0 0 13 13.891">
  <path id="Path_1" data-name="Path 1" d="M13,6.977V6.915a1.367,1.367,0,0,1-.132-.111Q9.749,3.474,6.632.141A1.431,1.431,0,0,1,6.529,0H6.471l-1.2,1.2L9.834,6.06h-.34q-3.059,0-6.118,0C2.251,6.059,1.125,6.054,0,6.05v1.79c.038,0,.077-.009.115-.009H9.667a2.015,2.015,0,0,1,.207.027L5.3,12.733l1.167,1.158h.058a1.434,1.434,0,0,1,.1-.141q3.117-3.332,6.236-6.663A1.367,1.367,0,0,1,13,6.977Z" transform="translate(13 13.891) rotate(180)" fill="#fff"/>
</svg>
